<?xml version="1.0" encoding="utf-8"?>
<!-- Generator: Adobe Illustrator 26.2.1, SVG Export Plug-In . SVG Version: 6.00 Build 0)  -->
<svg version="1.1" id="Layer_1" xmlns="http://www.w3.org/2000/svg" xmlns:xlink="http://www.w3.org/1999/xlink" x="0px" y="0px"
	 viewBox="0 0 191.83 200" style="enable-background:new 0 0 191.83 200;" xml:space="preserve">
<path d="M191.83,8.34l-1.69-7.8l-34.39,7.45L140.27,51.4H0l10.23,73.01l103.07,9.18l14.77,14.79c3.08,3.07,5.58,8.36,4.26,11.54
	c-1.27,3.07-6.67,4.82-14.83,4.82H9.38v7.98h5.65c-3.56,2.67-5.88,6.91-5.88,11.69c0,8.05,6.55,14.61,14.61,14.61
	c8.06,0,14.61-6.55,14.61-14.61c0-4.78-2.32-9.02-5.88-11.69h82.86c-3.56,2.67-5.88,6.91-5.88,11.69c0,8.05,6.55,14.61,14.61,14.61
	c8.06,0,14.61-6.55,14.61-14.61c0-5.95-3.58-11.07-8.69-13.35c4.88-1.58,8.14-4.28,9.72-8.1c2.87-6.93-1.1-15.36-6-20.24
	l-12.93-12.94l41-114.94L191.83,8.34z M23.76,191.04c-3.65,0-6.62-2.97-6.62-6.62s2.97-6.62,6.62-6.62s6.62,2.97,6.62,6.62
	S27.41,191.04,23.76,191.04z M124.07,191.04c-3.65,0-6.62-2.97-6.62-6.62s2.97-6.62,6.62-6.62c3.65,0,6.62,2.97,6.62,6.62
	S127.72,191.04,124.07,191.04z M12.14,80.51h14.93v18.03H14.66L12.14,80.51z M30.27,80.51H48.3v18.03H30.27V80.51z M72.71,80.51
	h18.01v18.03H72.71V80.51z M69.52,98.54H51.49V80.51h18.03V98.54z M72.71,77.31V59.38h18.01v17.93H72.71z M69.52,77.31H51.49V59.38
	h18.03V77.31z M48.3,77.31H30.27V59.38H48.3V77.31z M48.3,101.73v18.05l-18.03-1.61v-16.45H48.3z M51.49,101.73h18.03v19.94
	l-18.03-1.61V101.73z M72.71,101.73h18.01v21.83l-18.01-1.6V101.73z M93.92,101.73h18.03v23.72l-18.03-1.61V101.73z M115.14,101.73
	h7.17l-7.17,20.1V101.73z M115.14,98.54V80.51h14.74l-6.43,18.03H115.14z M111.95,98.54H93.92V80.51h18.03V98.54z M93.92,77.31
	V59.38h18.03v17.93H93.92z M27.07,59.38v17.93H11.69L9.18,59.38H27.07z M15.11,101.73h11.96v16.16l-9.82-0.87L15.11,101.73z
	 M131.02,77.31h-15.88V59.38h22.28L131.02,77.31z"/>
</svg>
