<?xml version="1.0" encoding="utf-8"?>
<!-- Generator: Adobe Illustrator 26.2.1, SVG Export Plug-In . SVG Version: 6.00 Build 0)  -->
<svg version="1.1" id="Layer_1" xmlns="http://www.w3.org/2000/svg" xmlns:xlink="http://www.w3.org/1999/xlink" x="0px" y="0px"
	 viewBox="0 0 200 203.45" style="enable-background:new 0 0 200 203.45;" xml:space="preserve">
<style type="text/css">
	.st0{enable-background:new    ;}
</style>
<g>
	<path d="M-63.85-154.55"/>
</g>
<g>
	<g>
		<path d="M114.14,177.55c-19.88-19.88-26.57-70.8-30.83-84.67c-3.68-11.96-9.42-24.47-27.6-27.35v-0.18
			c19.11-1.27,38.04-11.83,38.04-32.21C93.74,6.92,72.44,0,54.78,0H0v2.18h11.83v173.18H0v2.18h45.5v-2.18H33.67V65.71h10.38
			c9.46,0,15.2,12.42,18.64,25.93c2.81,11.05,12.38,72.03,33.54,93.18c20.32,20.32,58.99,18.59,103.78,18.59
			C172.55,203.42,134.38,197.79,114.14,177.55z M33.67,63.7V2.18h20.57c9.83,0,17.29,6.19,17.29,31.13c0,24.02-6.55,30.4-16.93,30.4
			L33.67,63.7L33.67,63.7z"/>
	</g>
</g>
<g class="st0">
	<path d="M48.64,71.73v1.41l-5.04,0.74L42.85,74c-0.4,0.06-0.77,0.1-1.1,0.13l-0.92,0.08c-0.02,0-0.07,0.01-0.13,0.01
		c-0.06,0-0.14,0.01-0.23,0.02l0.35,0.04c0.61,0.06,1.18,0.12,1.69,0.18c0.52,0.06,0.99,0.13,1.43,0.21l4.7,0.78v1.12l-4.56,0.73
		c-0.68,0.11-1.3,0.2-1.88,0.27c-0.58,0.07-1.13,0.13-1.65,0.18c0.55,0.05,1.09,0.1,1.6,0.16c0.52,0.06,1.02,0.12,1.52,0.19
		l0.72,0.11l4.25,0.63v1.4L37.78,78.3v-1.14l4.69-0.77c0.02,0,0.1-0.02,0.23-0.04c0.14-0.02,0.33-0.05,0.58-0.08l1.08-0.15
		c0.08-0.01,0.21-0.02,0.38-0.05c0.17-0.02,0.38-0.04,0.64-0.07l0.45-0.04c-0.11-0.01-0.2-0.02-0.28-0.03
		c-0.08-0.01-0.15-0.02-0.2-0.02c-0.31-0.02-0.55-0.04-0.72-0.06c-0.17-0.02-0.28-0.03-0.31-0.03l-1.04-0.15
		c-0.24-0.03-0.43-0.06-0.56-0.08c-0.14-0.02-0.22-0.03-0.25-0.04l-4.69-0.79v-1.17L48.64,71.73z"/>
	<path d="M48.64,82.36v3.89H47.4v-2.43h-3.44v2.15h-1.24v-2.15h-3.71v2.43h-1.24v-3.89H48.64z"/>
	<path d="M48.64,88.88v1.46H37.78v-1.46H48.64z"/>
	<path d="M43.49,95.89v2.66h-0.42c-2.11,0-3.54-0.19-4.28-0.56c-0.76-0.37-1.14-1.05-1.14-2.05c0-1.04,0.42-1.77,1.27-2.21
		c0.84-0.44,2.26-0.65,4.25-0.65c2.28,0,3.79,0.24,4.55,0.72c0.71,0.45,1.06,1.14,1.06,2.07c0,0.71-0.17,1.27-0.51,1.67
		c-0.35,0.4-0.92,0.72-1.71,0.94l-0.57-1.36c0.29-0.06,0.53-0.13,0.72-0.2c0.19-0.07,0.35-0.16,0.45-0.25
		c0.22-0.18,0.33-0.45,0.33-0.8c0-0.49-0.3-0.82-0.9-1c-0.63-0.18-1.76-0.27-3.38-0.27c-1.65,0-2.76,0.09-3.34,0.27
		C39.29,95.05,39,95.4,39,95.9c0,0.46,0.21,0.79,0.62,0.98c0.44,0.19,1.15,0.29,2.12,0.29h0.3h0.22v-1.27H43.49z"/>
	<path d="M48.64,101.29v1.46h-4.25v2.14h4.25v1.46H37.78v-1.46h5.37v-2.14h-5.37v-1.46H48.64z"/>
	<path d="M48.64,108.45v4.76h-1.28v-1.64h-9.58v-1.43h9.58v-1.69H48.64z"/>
	<path d="M48.64,115.3v1.46h-9.62v2.39h-1.24v-3.85H48.64z"/>
	<path d="M48.64,121.35v1.46H37.78v-1.46H48.64z"/>
	<path d="M48.64,125.76v3.91H47.4v-2.45h-3.43v2.21h-1.24v-2.21h-4.95v-1.46H48.64z"/>
	<path d="M48.64,131.22v4.76h-1.28v-1.64h-9.58v-1.43h9.58v-1.69H48.64z"/>
	<path d="M48.64,138.07v1.46H37.78v-1.46H48.64z"/>
	<path d="M48.64,142.48v1.36l-4.33,1.46c-1.22,0.42-2.53,0.79-3.92,1.12c0.84-0.12,1.6-0.2,2.28-0.26c0.68-0.06,1.32-0.08,1.92-0.08
		h4.05v1.47H37.78v-1.37l4.89-1.64c0.45-0.15,0.92-0.29,1.4-0.43s0.98-0.26,1.5-0.37c0.07-0.01,0.15-0.02,0.24-0.05
		c0.09-0.02,0.2-0.05,0.32-0.07c-0.12,0.01-0.23,0.03-0.31,0.04c-0.09,0.01-0.16,0.02-0.22,0.02l-1.1,0.08l-1.34,0.08
		c-0.08,0-0.17,0.01-0.27,0.01c-0.11,0-0.23,0-0.37,0l-4.73,0.08v-1.44H48.64z"/>
	<path d="M43.49,153.1v2.66h-0.42c-2.11,0-3.54-0.19-4.28-0.56c-0.76-0.37-1.14-1.05-1.14-2.05c0-1.04,0.42-1.77,1.27-2.21
		c0.84-0.44,2.26-0.65,4.25-0.65c2.28,0,3.79,0.24,4.55,0.72c0.71,0.45,1.06,1.14,1.06,2.07c0,0.71-0.17,1.27-0.51,1.67
		c-0.35,0.4-0.92,0.72-1.71,0.94l-0.57-1.36c0.29-0.06,0.53-0.13,0.72-0.2c0.19-0.07,0.35-0.16,0.45-0.25
		c0.22-0.18,0.33-0.45,0.33-0.8c0-0.49-0.3-0.82-0.9-1c-0.63-0.18-1.76-0.27-3.38-0.27c-1.65,0-2.76,0.09-3.34,0.27
		c-0.58,0.18-0.87,0.53-0.87,1.03c0,0.46,0.21,0.79,0.62,0.98c0.44,0.19,1.15,0.29,2.12,0.29h0.3h0.22v-1.27H43.49z"/>
</g>
</svg>
